<svg id="visual" viewBox="0 0 900 600" width="900" height="600" xmlns="http://www.w3.org/2000/svg" xmlns:xlink="http://www.w3.org/1999/xlink" version="1.1"><rect x="0" y="0" width="900" height="600" fill="#001220"></rect><path d="M0 429L21.5 431.5C43 434 86 439 128.8 428C171.7 417 214.3 390 257.2 381.7C300 373.3 343 383.7 385.8 395.5C428.7 407.3 471.3 420.7 514.2 426.7C557 432.7 600 431.3 642.8 424C685.7 416.7 728.3 403.3 771.2 391.2C814 379 857 368 878.5 362.5L900 357L900 601L878.5 601C857 601 814 601 771.2 601C728.3 601 685.7 601 642.8 601C600 601 557 601 514.2 601C471.3 601 428.7 601 385.8 601C343 601 300 601 257.2 601C214.3 601 171.7 601 128.8 601C86 601 43 601 21.5 601L0 601Z" fill="#8f87c0"></path><path d="M0 394L21.5 403.2C43 412.3 86 430.7 128.8 441.2C171.7 451.7 214.3 454.3 257.2 452.2C300 450 343 443 385.8 442C428.7 441 471.3 446 514.2 446C557 446 600 441 642.8 437C685.7 433 728.3 430 771.2 433C814 436 857 445 878.5 449.5L900 454L900 601L878.5 601C857 601 814 601 771.2 601C728.3 601 685.7 601 642.8 601C600 601 557 601 514.2 601C471.3 601 428.7 601 385.8 601C343 601 300 601 257.2 601C214.3 601 171.7 601 128.8 601C86 601 43 601 21.5 601L0 601Z" fill="#7878b5"></path><path d="M0 497L21.5 490.8C43 484.7 86 472.3 128.8 472.3C171.7 472.3 214.3 484.7 257.2 487.3C300 490 343 483 385.8 480.8C428.7 478.7 471.3 481.3 514.2 482.2C557 483 600 482 642.8 485.3C685.7 488.7 728.3 496.3 771.2 500.7C814 505 857 506 878.5 506.5L900 507L900 601L878.5 601C857 601 814 601 771.2 601C728.3 601 685.7 601 642.8 601C600 601 557 601 514.2 601C471.3 601 428.7 601 385.8 601C343 601 300 601 257.2 601C214.3 601 171.7 601 128.8 601C86 601 43 601 21.5 601L0 601Z" fill="#606aab"></path><path d="M0 506L21.5 510.7C43 515.3 86 524.7 128.8 522.8C171.7 521 214.3 508 257.2 503.3C300 498.7 343 502.3 385.8 501.2C428.7 500 471.3 494 514.2 490.7C557 487.3 600 486.7 642.8 492C685.7 497.3 728.3 508.7 771.2 512C814 515.3 857 510.7 878.5 508.3L900 506L900 601L878.5 601C857 601 814 601 771.2 601C728.3 601 685.7 601 642.8 601C600 601 557 601 514.2 601C471.3 601 428.7 601 385.8 601C343 601 300 601 257.2 601C214.3 601 171.7 601 128.8 601C86 601 43 601 21.5 601L0 601Z" fill="#445ca1"></path><path d="M0 550L21.5 551C43 552 86 554 128.8 557C171.7 560 214.3 564 257.2 562.3C300 560.7 343 553.3 385.8 553.2C428.7 553 471.3 560 514.2 557.7C557 555.3 600 543.7 642.8 539C685.7 534.3 728.3 536.7 771.2 535.5C814 534.3 857 529.7 878.5 527.3L900 525L900 601L878.5 601C857 601 814 601 771.2 601C728.3 601 685.7 601 642.8 601C600 601 557 601 514.2 601C471.3 601 428.7 601 385.8 601C343 601 300 601 257.2 601C214.3 601 171.7 601 128.8 601C86 601 43 601 21.5 601L0 601Z" fill="#1a4f97"></path></svg>