<svg id="visual" viewBox="0 0 900 600" width="900" height="600" xmlns="http://www.w3.org/2000/svg" xmlns:xlink="http://www.w3.org/1999/xlink" version="1.1"><path d="M0 43L13.7 47C27.3 51 54.7 59 82 61C109.3 63 136.7 59 163.8 54C191 49 218 43 245.2 40C272.3 37 299.7 37 327 43C354.3 49 381.7 61 409 72C436.3 83 463.7 93 491 95C518.3 97 545.7 91 573 88C600.3 85 627.7 85 654.8 79C682 73 709 61 736.2 54C763.3 47 790.7 45 818 43C845.3 41 872.7 39 886.3 38L900 37L900 0L886.3 0C872.7 0 845.3 0 818 0C790.7 0 763.3 0 736.2 0C709 0 682 0 654.8 0C627.7 0 600.3 0 573 0C545.7 0 518.3 0 491 0C463.7 0 436.3 0 409 0C381.7 0 354.3 0 327 0C299.7 0 272.3 0 245.2 0C218 0 191 0 163.8 0C136.7 0 109.3 0 82 0C54.7 0 27.3 0 13.7 0L0 0Z" fill="#423d67"></path><path d="M0 157L13.7 155C27.3 153 54.7 149 82 149C109.3 149 136.7 153 163.8 154C191 155 218 153 245.2 156C272.3 159 299.7 167 327 176C354.3 185 381.7 195 409 204C436.3 213 463.7 221 491 211C518.3 201 545.7 173 573 158C600.3 143 627.7 141 654.8 145C682 149 709 159 736.2 154C763.3 149 790.7 129 818 132C845.3 135 872.7 161 886.3 174L900 187L900 35L886.3 36C872.7 37 845.3 39 818 41C790.7 43 763.3 45 736.2 52C709 59 682 71 654.8 77C627.7 83 600.3 83 573 86C545.7 89 518.3 95 491 93C463.7 91 436.3 81 409 70C381.7 59 354.3 47 327 41C299.7 35 272.3 35 245.2 38C218 41 191 47 163.8 52C136.7 57 109.3 61 82 59C54.7 57 27.3 49 13.7 45L0 41Z" fill="#3f4172"></path><path d="M0 229L13.7 236C27.3 243 54.7 257 82 257C109.3 257 136.7 243 163.8 237C191 231 218 233 245.2 244C272.3 255 299.7 275 327 277C354.3 279 381.7 263 409 267C436.3 271 463.7 295 491 295C518.3 295 545.7 271 573 257C600.3 243 627.7 239 654.8 238C682 237 709 239 736.2 226C763.3 213 790.7 185 818 193C845.3 201 872.7 245 886.3 267L900 289L900 185L886.3 172C872.7 159 845.3 133 818 130C790.7 127 763.3 147 736.2 152C709 157 682 147 654.8 143C627.7 139 600.3 141 573 156C545.7 171 518.3 199 491 209C463.7 219 436.3 211 409 202C381.7 193 354.3 183 327 174C299.7 165 272.3 157 245.2 154C218 151 191 153 163.8 152C136.7 151 109.3 147 82 147C54.7 147 27.3 151 13.7 153L0 155Z" fill="#3a457e"></path><path d="M0 391L13.7 406C27.3 421 54.7 451 82 463C109.3 475 136.7 469 163.8 447C191 425 218 387 245.2 377C272.3 367 299.7 385 327 387C354.3 389 381.7 375 409 384C436.3 393 463.7 425 491 433C518.3 441 545.7 425 573 423C600.3 421 627.7 433 654.8 448C682 463 709 481 736.2 485C763.3 489 790.7 479 818 471C845.3 463 872.7 457 886.3 454L900 451L900 287L886.3 265C872.7 243 845.3 199 818 191C790.7 183 763.3 211 736.2 224C709 237 682 235 654.8 236C627.7 237 600.3 241 573 255C545.7 269 518.3 293 491 293C463.7 293 436.3 269 409 265C381.7 261 354.3 277 327 275C299.7 273 272.3 253 245.2 242C218 231 191 229 163.8 235C136.7 241 109.3 255 82 255C54.7 255 27.3 241 13.7 234L0 227Z" fill="#304a8a"></path><path d="M0 601L13.7 601C27.3 601 54.7 601 82 601C109.3 601 136.7 601 163.8 601C191 601 218 601 245.2 601C272.3 601 299.7 601 327 601C354.3 601 381.7 601 409 601C436.3 601 463.7 601 491 601C518.3 601 545.7 601 573 601C600.3 601 627.7 601 654.8 601C682 601 709 601 736.2 601C763.3 601 790.7 601 818 601C845.3 601 872.7 601 886.3 601L900 601L900 449L886.3 452C872.7 455 845.3 461 818 469C790.7 477 763.3 487 736.2 483C709 479 682 461 654.8 446C627.7 431 600.3 419 573 421C545.7 423 518.3 439 491 431C463.7 423 436.3 391 409 382C381.7 373 354.3 387 327 385C299.7 383 272.3 365 245.2 375C218 385 191 423 163.8 445C136.7 467 109.3 473 82 461C54.7 449 27.3 419 13.7 404L0 389Z" fill="#1a4f97"></path></svg>