<svg id="visual" viewBox="0 0 960 540" width="960" height="540" xmlns="http://www.w3.org/2000/svg" xmlns:xlink="http://www.w3.org/1999/xlink" version="1.1"><rect x="0" y="0" width="960" height="540" fill="#001220"></rect><defs><linearGradient id="grad1_0" x1="43.8%" y1="0%" x2="100%" y2="100%"><stop offset="14.444444444444446%" stop-color="#3a2b9d" stop-opacity="1"></stop><stop offset="85.55555555555554%" stop-color="#3a2b9d" stop-opacity="1"></stop></linearGradient></defs><defs><linearGradient id="grad1_1" x1="43.8%" y1="0%" x2="100%" y2="100%"><stop offset="14.444444444444446%" stop-color="#3a2b9d" stop-opacity="1"></stop><stop offset="85.55555555555554%" stop-color="#002762" stop-opacity="1"></stop></linearGradient></defs><defs><linearGradient id="grad1_2" x1="43.8%" y1="0%" x2="100%" y2="100%"><stop offset="14.444444444444446%" stop-color="#001220" stop-opacity="1"></stop><stop offset="85.55555555555554%" stop-color="#002762" stop-opacity="1"></stop></linearGradient></defs><defs><linearGradient id="grad2_0" x1="0%" y1="0%" x2="56.3%" y2="100%"><stop offset="14.444444444444446%" stop-color="#3a2b9d" stop-opacity="1"></stop><stop offset="85.55555555555554%" stop-color="#3a2b9d" stop-opacity="1"></stop></linearGradient></defs><defs><linearGradient id="grad2_1" x1="0%" y1="0%" x2="56.3%" y2="100%"><stop offset="14.444444444444446%" stop-color="#002762" stop-opacity="1"></stop><stop offset="85.55555555555554%" stop-color="#3a2b9d" stop-opacity="1"></stop></linearGradient></defs><defs><linearGradient id="grad2_2" x1="0%" y1="0%" x2="56.3%" y2="100%"><stop offset="14.444444444444446%" stop-color="#002762" stop-opacity="1"></stop><stop offset="85.55555555555554%" stop-color="#001220" stop-opacity="1"></stop></linearGradient></defs><g transform="translate(960, 0)"><path d="M0 378C-39 342.4 -78.1 306.8 -119 287.3C-160 267.9 -202.9 264.6 -244.7 244.7C-286.5 224.7 -327.2 188.2 -349.2 144.7C-371.3 101.1 -374.6 50.6 -378 0L0 0Z" fill="#001e40"></path><path d="M0 252C-26 228.3 -52 204.5 -79.3 191.6C-106.6 178.6 -135.2 176.4 -163.1 163.1C-191 149.8 -218.1 125.5 -232.8 96.4C-247.5 67.4 -249.8 33.7 -252 0L0 0Z" fill="#002d82"></path><path d="M0 126C-13 114.1 -26 102.3 -39.7 95.8C-53.3 89.3 -67.6 88.2 -81.6 81.6C-95.5 74.9 -109.1 62.7 -116.4 48.2C-123.8 33.7 -124.9 16.9 -126 0L0 0Z" fill="#3a2b9d"></path></g><g transform="translate(0, 540)"><path d="M0 -378C36.7 -341.6 73.4 -305.2 120.9 -291.9C168.5 -278.7 226.9 -288.7 267.3 -267.3C307.7 -245.8 330.1 -192.9 345.5 -143.1C361 -93.3 369.5 -46.7 378 0L0 0Z" fill="#001e40"></path><path d="M0 -252C24.5 -227.7 48.9 -203.4 80.6 -194.6C112.3 -185.8 151.3 -192.5 178.2 -178.2C205.1 -163.9 220.1 -128.6 230.4 -95.4C240.7 -62.2 246.3 -31.1 252 0L0 0Z" fill="#002d82"></path><path d="M0 -126C12.2 -113.9 24.5 -101.7 40.3 -97.3C56.2 -92.9 75.6 -96.2 89.1 -89.1C102.6 -81.9 110 -64.3 115.2 -47.7C120.3 -31.1 123.2 -15.6 126 0L0 0Z" fill="#3a2b9d"></path></g></svg>